<?xml version="1.0" encoding="UTF-8"?>
<svg id="MasterLayer_1" xmlns="http://www.w3.org/2000/svg"
    xmlns:xlink="http://www.w3.org/1999/xlink" viewBox="0 0 527.79 337.75">
    <defs>
        <style>
            .cls-1{fill:#424271;}.cls-1,.cls-2,.cls-3,.cls-4,.cls-5,.cls-6,.cls-7,.cls-8,.cls-9,.cls-10,.cls-11,.cls-12,.cls-13,.cls-14,.cls-15,.cls-16,.cls-17,.cls-18,.cls-19,.cls-20,.cls-21,.cls-22,.cls-23,.cls-24,.cls-25,.cls-26{fill-rule:evenodd;}.cls-2{fill:#862e60;}.cls-3{fill:#8d8dba;}.cls-4{fill:#c1c3c5;}.cls-5{fill:#fff;}.cls-6{fill:#d37d7a;}.cls-7{fill:#d55d7e;}.cls-8{fill:#f0b587;}.cls-9{fill:url(#Linear_Gradient_139923078139560);}.cls-10{fill:#9a3567;}.cls-11{fill:#7878a0;}.cls-12{fill:#504e86;}.cls-13{fill:#746daa;}.cls-14{fill:#d0597d;}.cls-15{fill:#645a73;}.cls-16{fill:#eb6d87;}.cls-17{fill:#b64c7a;}.cls-18{fill:#58598c;}.cls-19{fill:#af406f;}.cls-20{fill:#3b3a3b;}.cls-21{fill:#e2e1e7;}.cls-22{fill:#5e5f82;}.cls-23{fill:#ec7187;}.cls-24{fill:#817fa6;}.cls-25{fill:url(#Linear_Gradient_139923078157448);}.cls-26{fill:#9b99c3;}</style>
        <linearGradient id="Linear_Gradient_139923078139560" x1="-8159.56" y1="112705.75"
            x2="-22525.1" y2="309035.67" gradientUnits="userSpaceOnUse">
            <stop offset="0" stop-color="#b593b6" />
            <stop offset=".5" stop-color="#7f85b3" />
            <stop offset=".86" stop-color="#b593b6" />
            <stop offset=".86" stop-color="#7aa8d1" />
            <stop offset="1" stop-color="#7aa8d1" />
        </linearGradient>
        <linearGradient id="Linear_Gradient_139923078157448" x1="-16714.89" y1="-94682.24"
            x2="-18407.99" y2="-104061.06" gradientUnits="userSpaceOnUse">
            <stop offset="1" stop-color="#ac93b6" />
            <stop offset="1" stop-color="#2e206d" />
        </linearGradient>
    </defs>
    <path class="cls-11"
        d="m216.64,323.69c-2.23,0-4.47-.08-6.72-.21,1.32-.06,2.64-.12,3.97-.17,2.81-.1,5.84-.37,8.81-.37,1.37,0,2.74.06,4.06.22-1.26.11-2.53.21-3.79.3-2.1.16-4.21.23-6.33.23" />
    <g id="jogBg">
        <path class="cls-21"
            d="m75.09,310.41c-2.21-5.25-89.33-71.61-21.11-149.7,14.92-17.08,28.74-36.05,35.79-57.84,6.27-19.39-2.92-52.75,10.85-67.44,6.34-6.76,15.23-10.45,23.95-13.61C214.13-10.65,314.36-6.38,401.61,31.26c37.75,16.29,125.47,51.54,126.18,104.46.09,6.89-2,12.98-4.59,19.24-5.25,12.68-37.79,39.98-57.73,54.67-19.94,14.7-38.88,11.73-14.74,37.98,24.14,26.24,48.43,34.3,26.28,52.83-22.14,18.53-379.99,22.56-379.99,22.56l-21.93-12.59" />
        <path class="cls-4"
            d="m51.48,129.94s83-19.96,127.13,18.91c44.13,38.87,65.73,69.34,104.31,73.54,38.58,4.2,108.97-51.18,127.88-66.04,18.91-14.86,39.93-21.14,79.85,20.87,39.93,42.02-11.55,131.32-11.55,131.32l-276.56,13.7-148.17-6.36L0,177.23l51.48-47.29" />
        <path class="cls-3"
            d="m514.55,337.75c-.16,0-4.45,0-12.11,0-58.16,0-310.18,0-412.7,0h-43.63c18.06-23.14,49.57-28.26,75.91-30.56,10.48-.92,20.8-.31,31.16.3,6.63.39,13.28.78,19.99.77,7.93,0,16.01.66,24.09,1.32,10.15.83,20.33,1.67,30.27,1.17,57.27-2.89,113.7-12.89,171.09-12.65,22.04.1,42.96-.09,63.65,6.69,2.58.84,5.15,1.79,7.72,2.87,8.54,3.56,17.16,7.33,24.61,12.81,2.3,1.7,18.56,16.44,19.94,17.29" />
        <path class="cls-26"
            d="m485.23,337.75c-.15,0-4.45,0-12.12,0-58.21,0-310.46,0-413.08,0,17.21-14.64,38.41-19.17,57.03-21.6,9.95-1.3,19.94.13,29.93,1.56,7.28,1.05,14.56,2.09,21.81,2.07,7.94-.02,15.97.97,24.01,1.95,10.1,1.24,20.21,2.48,30.16,1.72,57.31-4.32,113.51-21.28,170.95-20.9,13.35.09,26.28.02,39,2.2,2.58.84,5.15,1.79,7.72,2.87,8.54,3.56,17.17,7.33,24.63,12.82,2.31,1.7,18.57,16.45,19.96,17.3" />
        <path class="cls-9"
            d="m46.62,128.28c.07-.08.13-.15.2-.23,4.29-5.13,2.67-12.83.45-19.14-2.63-7.45-5.45-21.82-1.49-29.26,5.53-10.4,14.37-14.85,27.07-14.93,14.93-.1,25.25,9.78,26.98,22.59,1.52,11.29-4.65,25.85,4.88,34.89,2.34,2.22,5.34,3.6,8.2,5.1,7.32,3.82,14.58,9.28,16.78,17.23,2.27,8.19-1.36,16.69-4.22,24.68-5.05,14.13,1.11,22.17,2.53,35.77,1.32,12.64-3.21,24.86-13.29,32.81-10.59,8.36-24.2,11.69-37.39,14.54-7.31,1.58-14.91,3.07-22.19,1.37-16.9-3.94-33.44-27.97-21.53-43.8,5.07-6.73,13.9-11.4,14.16-20.79.04-1.38-.13-2.81-.8-4.01-.82-1.45-2.28-2.41-3.74-3.23-4.81-2.72-10.08-4.61-14.74-7.6-18.48-11.88-6.51-32.45,8.96-40.36,3.22-1.64,6.78-2.94,9.17-5.63" />
        <path class="cls-1"
            d="m105.14,216.85c-1.74,10.34-5.86,17.9-11.85,26.73-2.63,3.88-2.33,7.63-2.57,12.65-.56,11.91-1.51,23.8-2.76,35.66-.59,5.6-1.31,11.18-1.99,16.77-.11.94-.12,3.12-.5,4.91-6.84,1.96-13.48,4.53-19.63,7.94-.21.08-.42.16-.63.25-.01-2.18.48-5.92.54-6.29,2.19-13.53,5.68-27.09,7.95-40.72,2.31-13.91,2.99-28.09,2.98-42.19,0-6.23-.16-12.46-.47-18.68-6.82-6.81-12.46-14.6-17.33-23.08-1.99-3.46,1.95-4.19,3.94-.74,3.41,5.94,8.78,11.84,13.13,16.94-.35-4.99-1.09-12.67-1.33-17.66-.1-2.03-.21-4.11-.21-6.22-5.74-4.81-10.69-11.03-13.16-18.31-1.29-3.79,3.47-3.46,4.72.33,1.57,4.55,5.17,8.07,8.96,10.26.14-.87.32-1.67.52-2.51,1-2.78,4.99-5.03,5.85-1.31,2.89,12.45,4.06,31.16,6.18,44.56,3.18-7.1,7.52-21.11,7.56-29.62,0-4,5.16-5.03,5.16-1.03-.07,13.03-4.9,28.08-10.33,39.87.06,3.9.56,7.98.88,11.76,4.64-4.93,9.52-15.28,10.74-22.55.66-3.93,4.34-1.65,3.68,2.28" />
        <path class="cls-24"
            d="m204.57,331.21c-3.52,0-7.04-.08-10.55-.3-3.08-.2-7.44-.18-10.08-1.35-2.24-.99-1.85-2.44.34-3.32,2.71-1.09,19.36-2.4,19.36-2.4,2.09-.14,4.19-.26,6.29-.36,2.24.13,4.48.21,6.72.21,2.12,0,4.23-.07,6.33-.23,1.26-.09,2.53-.2,3.79-.3.95.11,1.88.28,2.77.51,3,.79,7.54,4.56,3.42,6.17-.65.25-1.36.43-2.1.54-1.82.28-3.83.24-5.63.32-3.07.13-6.14.23-9.21.32-3.81.1-7.63.19-11.45.19" />
        <path class="cls-24"
            d="m333.85,326.78c-3.86,0-7.72-.1-11.57-.39-3.38-.25-8.16-.24-11.05-1.75-2.45-1.29-2.03-3.18.37-4.33,2.98-1.42,21.23-3.12,21.23-3.12,3.74-.3,7.49-.52,11.24-.68,3.07-.13,6.39-.49,9.65-.49,2.59,0,5.14.22,7.5.95,3.29,1.02,8.27,5.94,3.75,8.03-.71.33-1.49.55-2.31.7-2,.37-4.21.32-6.17.41-3.36.17-6.73.31-10.1.41-4.18.13-8.37.25-12.56.25" />
        <path class="cls-25"
            d="m463.43,294.19c-.69,2.86-2.49,5.33-4.48,7.5-.36.39-.73.78-1.21,1-.48.22-1.03.24-1.56.26-.04,0-.08,0-.13,0-18.67-4.91-37.59-4.77-57.41-4.85h-.13c-.05-.22-.12-.44-.21-.66-.32-.79-.87-1.48-1.23-2.26-1.39-3.01.46-6.72,3.24-8.53,2.78-1.81,6.22-2.2,9.52-2.57.42-.05.87-.11,1.18-.39.39-.37.42-.97.44-1.51.13-3.26,1.01-6.63,3.2-9.06,1.83-2.04,4.42-3.25,7.07-3.96,5.08-1.35,10.61-.97,15.46,1.07,3.05,1.28,6.66,4.06,6.71,7.75,0,.18,6.17,1.17,6.78,1.29,1.27.26,2.54.57,3.77.97,2.39.8,4.69,2,6.41,3.88,2.43,2.66,3.43,6.56,2.59,10.06" />
        <path class="cls-5"
            d="m290.65,85.9h114.16c-.33,0-1.81-2.1-2.06-2.36-1.99-2.07-4.25-3.91-6.67-5.47-6.65-4.26-14.64-4.58-21.46-8.71-4.66-2.82-8.76-6.58-13.69-8.9-7.66-3.61-16.7-3.42-24.82-.98-7.89,2.36-15.22,6.66-21.91,11.4-5.47,3.87-10.95,9.25-17.78,10.47-4.9.88-5.78,4.55-5.78,4.55" />
        <path class="cls-5"
            d="m130.4,67.32h114.16c-.33,0-1.81-2.1-2.06-2.36-1.99-2.07-4.25-3.91-6.67-5.47-6.65-4.26-14.64-4.58-21.46-8.71-4.66-2.82-8.76-6.58-13.69-8.9-7.66-3.61-16.7-3.42-24.82-.98-7.89,2.36-15.22,6.66-21.91,11.4-5.47,3.87-10.95,9.25-17.78,10.47-4.9.88-5.78,4.55-5.78,4.55" />
    </g>
    <g id="jogGirl">
        <path class="cls-8"
            d="m221.75,180.36c-.41-.64,0-11.21,0-11.21l-9.22-4.44v10.16s9.63,6.13,9.22,5.49" />
        <path class="cls-8"
            d="m216.53,198.92s8.58,18.39,12.69,21.45c.63.47,1.53.27,2.21.04,1.2-.39,2.31-1.07,3.36-1.75,1.42-.92,2.77-1.95,4.08-3.01,1.5-1.21,2.95-2.46,4.38-3.74,1.44-1.29,2.85-2.61,4.25-3.94,1.25-1.19,2.48-2.4,3.7-3.62.82-.82,1.66-1.63,2.45-2.48.55-.59,1.24-1.08,1.64-1.8.41-.73.05-2.15-.56-2.75-.77-.76-1.2-1.23-2.17-1.77-1.15-.63-2.41-.21-3.57.22.18-.07-.48-.85-.67-.88-.25-.04-.69.03-.9.21-.21.18-.3.45-.36.72-.18.83-.51,1.61-.64,2.45-.14.89.02,1.75.12,2.64,0,0-13.26,11.26-13.6,9.92-.12-.47-4.73-12.31-6.25-14.82l-10.18,2.92" />
        <path class="cls-8"
            d="m195.94,189.77s-11.43,8.34-12,11.74c-.57,3.39.08,4.08.73,4.33.66.25,20.3,10.15,20.3,10.15l.44-4.46s-11.32-8.49-12.98-9.09c0,0,7.05-4.4,8.19-5.89,1.14-1.49-4.68-6.77-4.68-6.77" />
        <path class="cls-8"
            d="m201.3,211.44s1.75,2.89,0,8.23h20.66s-1.84-4.81-1.23-6.22-19.44-2.01-19.44-2.01" />
        <path class="cls-13"
            d="m201.21,197.99s-2.85,13.66-5.59,16c0,0,24.94,1.05,28.62.79l3.24.04-9.89-18.69-16.37,1.87" />
        <path class="cls-8"
            d="m216.53,198.92s8.58,18.39,12.69,21.45c.63.47,1.53.27,2.21.04,1.2-.39,2.31-1.07,3.36-1.75,1.42-.92,2.77-1.95,4.08-3.01,1.5-1.21,2.95-2.46,4.38-3.74,1.44-1.29,2.85-2.61,4.25-3.94,1.25-1.19,2.48-2.4,3.7-3.62.82-.82,1.66-1.63,2.45-2.48.55-.59,1.24-1.08,1.64-1.8.41-.73.05-2.15-.56-2.75-.77-.76-1.2-1.23-2.17-1.77-1.15-.63-2.41-.21-3.57.22.18-.07-.48-.85-.67-.88-.25-.04-.69.03-.9.21-.21.18-.3.45-.36.72-.18.83-.51,1.61-.64,2.45-.14.89.02,1.75.12,2.64,0,0-13.26,11.26-13.6,9.92-.12-.47-4.73-12.31-6.25-14.82l-10.18,2.92" />
        <path class="cls-13"
            d="m188.54,189.7s16.4-8.49,23.26-14.54c0,0,2.37-2.38,6.95,1.35,4.58,3.73,12.17,17.21,12.17,17.21l.45.67-13.66,8.65-2.55-4.27-13.95.83-1.97,1.03s-5.79-9.09-10.7-10.93" />
        <path class="cls-8"
            d="m192.54,246.63s-5.34,12.78-6.39,16.72c0,0-9.67-1.4-29.18,13.42l-8.43,4.78-1.26,4.44s4.32,2.33,4.9,2.33.47-.93.93-1.17c.47-.23,34.78-14.36,37.82-15.52,3.03-1.17,13.77-12.49,14.71-17.16.93-4.67-13.1-7.85-13.1-7.85" />
        <path class="cls-8"
            d="m215.22,255.35s10.97,16.41,11.79,17.57l.82,1.17s-5.25,5.6-9.45,28.13l-2.1,12.78,7.97-2.45s11.99-33.79,13.39-35.43c1.4-1.63-7.24-29.76-7.24-29.76l-15.17,7.99" />
        <path class="cls-19"
            d="m208.83,248.56l-1.31,6.74s-10.77,1.58-19.08-12.87l9.28-15.27,11.12,21.4" />
        <path class="cls-23"
            d="m222.34,219.67l9.03,26.76s-.16,7.82-18.37,10.27l-7.32-11.91s-16.72-4.46-5.69-21.89l.35-3.73,22,.5" />
        <path class="cls-20"
            d="m237.68,323.63c.01.75-.39,1.36-1.3,2.23-1.6,1.52-5.2.78-7.11.45-2.52-.43-4.99-1.14-7.54-1.36-2.14-.19-7.87,1.13-8.98-1.53-.57-1.36-.01-2.77.46-3.59.11.78.34.95.77,1.14.64.29,4.61-.11,7.12.47,2.51.59,8.35,2.34,10.62,3.21,1.49.57,4.03.78,5.37-.27.3-.23.49-.48.59-.74" />
        <path class="cls-13"
            d="m231.71,324.64c-2.27-.87-8.11-2.63-10.62-3.21-2.51-.58-6.48-.17-7.12-.47-.49-.22-.71-.41-.81-1.52-.01-.14-.02-.29-.04-.46,0-.24-.02-.52-.03-.83-.06-2.28,2.86-6.83,2.86-6.83,0,0,2.34,2.28,3.21,2.28s2.16,0,3.97-1.75c1.81-1.75,3.97-.47,4.61-.29.64.17.99,2.51,1.17,2.86.35.69.95,1.36,1.67,2.01.41.37.86.73,1.33,1.07.21.16.43.32.64.47.5.35,1,.7,1.48,1.02.18.13.37.25.54.37.53.36,1.01.7,1.39,1.01l.03.03c1.12.9,2.69,2.71,1.08,3.97-1.35,1.05-3.89.84-5.37.26" />
        <path class="cls-20"
            d="m231.91,317.51l-3.95,1.17c-.37.11-.76-.1-.87-.47-.02-.07-.03-.13-.03-.2,0-.3.2-.58.5-.68l3.02-.9c.41.37.86.73,1.33,1.07" />
        <path class="cls-20"
            d="m234.04,319l-3.83,1.14c-.37.11-.76-.1-.87-.47-.02-.07-.02-.13-.02-.2,0-.3.19-.59.5-.67l2.75-.81c.5.35,1,.7,1.48,1.02" />
        <path class="cls-20"
            d="m236.01,320.4l-3.7,1.1c-.37.11-.76-.1-.87-.47-.02-.07-.03-.13-.03-.2,0-.3.2-.58.5-.67l2.67-.79c.53.36,1.01.7,1.39,1.01l.03.03" />
        <path class="cls-8"
            d="m228.26,160.29c.35-.89-.54-1.3-1.44-1.84-1.26-3.03-2.13-5.78-4.86-8.12-2.54-2.19-6.12-3.63-9.51-2.36-4.78,1.79-6.54,8.25-3.93,14.42.54,1.28,1.24,2.47,2.04,3.53,3.09,4.08,9.26,6.06,12.82,4.18,2.03-1.07,2.13-.79,3.1-2.92.62-1.35,1.43-3.73,1.17-6.04.21-.19.44-.44.6-.85" />
        <path class="cls-20"
            d="m221.76,149.45c-.11-.64-.1-1.35-.08-2.03.01-.55.02-1.12-.03-1.66-.15-1.62-.36-3.18-1.17-4.5-.84-1.37-2.55-2.28-4.11-2.98-.16-.07-.35,0-.43.16-.07.16,0,.35.16.42,1.48.67,3.08,1.51,3.84,2.73.75,1.21.93,2.69,1.08,4.23.04.41.04.84.03,1.27-.85-3.79-3.15-9.85-10.53-7.31,0,0-2.4.58-2.5,4.41,0-.26-4.87-.42-5.32-.39-1.6.12-3.27.73-4.21,2.04-.93,1.31-.83,3.4.51,4.29-1.75-.16-3.52,0-5.21.47-.03,0-.06,0-.1,0-4.74.38-7.25,2.74-8.52,4.66-.1.15-.06.35.09.44.06.04.11.05.18.05.1,0,.21-.05.27-.14.88-1.33,2.4-2.88,4.93-3.75-.95.52-1.85,1.15-2.52,2-.71.89-1.15,2.03-1.03,3.17-2.43-.25-4.99-.16-7.24.88-1.43.66-2.56,1.79-3.32,3.16-.77,1.39-1.18,2.97-1.43,4.53-.28,1.77.77,2.9,1.48,3.53.81.72,1.81,1.2,2.84,1.49,3.94,1.11-9.54,4.09-7.95,9.3,1.6,5.21,7.05,5,12.1,2.34,5.05-2.66,9.09-5.8,11.06-5.16.2.07.42.15.65.24-3.52.97-8.9,4.62-13.31,7.94-3.7,2.8-8.71.47-8.76.45-.16-.07-.35,0-.42.15-.08.16,0,.35.15.43.14.06,2.16,1.01,4.64,1.01,1.54,0,3.24-.36,4.78-1.52,6.4-4.83,10.42-6.26,13.03-6.65,1.52.7,1.68,1.61,3.12,2.45.79.46,2.56-.78,3.24-.17.69.61,2.67,1.2,3.61,1.07,1-.13,1.9-.71,2.62-1.42.8-.79,1.39-1.74,2.09-2.61.69-.86,1.5-1.61,2.19-2.46.65-.8,1.12-1.73,1.69-2.58.47-.72,1-1.36,1.13-2.23.17-1.2-.11-2.44-.53-3.56-.31-.81-1.12-2.72-2.12-3.7-.35.27-.79.43-1.27.43-1.16,0-2.11-.94-2.11-2.11s.94-2.11,2.11-2.11h0s-.03-.56,1.93-1.7c2.71-1.58,3.99-4.79,3.45-6.28-.54-1.49,3.36-1.38,4.35-1.9,1-.52.72-.44.72-.44l-.02-.04c.13-.06.2-.19.18-.34" />
        <path class="cls-20"
            d="m225.08,157.48c0,.39-.32.71-.71.71s-.71-.32-.71-.71.32-.71.71-.71.71.32.71.71" />
        <path class="cls-20"
            d="m225.47,154.65s-1.35.06-1.49.07c-.79.06-1.61.14-2.3.56-.3.18-.52.44-.74.71-.2.25-.41.62-.69.78,0-.1.04-.21.07-.31.2-.53.39-1.08.71-1.55.44-.65,1.38-1.07,2.13-1.25.75-.18,2.54-.21,2.29.99" />
        <path class="cls-22" d="m224.9,214.78h-.62s.62,0,.62,0h0m-.78,0s.07,0,.11,0h0s-.07,0-.11,0" />
        <path class="cls-15" d="m213.15,214.62c-.2,0-.4-.01-.61-.02h0c.2,0,.4.01.61.02" />
        <path class="cls-12"
            d="m222.28,214.81c-2.15,0-5.51-.08-9.13-.19-.2,0-.4-.01-.61-.02h0s6.14-3.53,5.8-11.96h0c.44.9.96,1.92,1.51,3,1.5,2.91,3.32,6.3,5.06,9.13h-.62s-.05,0-.05,0h0s-.07,0-.11,0c-.42.02-1.05.03-1.85.03" />
        <path class="cls-15"
            d="m224.91,214.78h0c-1.75-2.83-3.57-6.22-5.06-9.13,1.5,2.91,3.32,6.3,5.06,9.13" />
        <polyline class="cls-12" points="218.33 202.65 218.33 202.64 218.33 202.65 218.33 202.65" />
        <path class="cls-1" d="m199.24,200.63s-1.95-.04-3.01-.67l1.78-1.24,1.24,1.91" />
        <path class="cls-22"
            d="m190.8,193.8c-.38,0-2.25-4.1-2.25-4.1,1.09.41,2.23,1.18,3.34,2.13.21.18.43.37.64.57-.54.44-1.12.91-1.71,1.4,0,0-.01,0-.02,0" />
        <path class="cls-12" d="m192.52,192.4c-.21-.2-.43-.39-.64-.57.21.18.43.37.64.57h0" />
        <path class="cls-1" d="m231.37,194.39s-.94,2.3-3.47,4l-.65-1.39,4.12-2.61" />
        <path class="cls-20"
            d="m149.49,303.59c-.05.21-.11.42-.2.6-.85,1.66-4.39-.12-5.39-.91-1.47-1.16-2.15-4.05-2.6-5.77-.73-2.81-1.47-5.62-2.22-8.42-.51-1.9-1.67-3.45-2.3-5.25-.22-.63.42-1.61.95-1.99.22-.16.81-.23,1.41-.27-.01.03-.03.05-.05.08-.29.53,4.2,4.32,5.02,12.84.82,8.52,4.26,9.04,4.32,9.4,0,.04,0,.08-.01.11.08-.03.18-.07.32-.11.36-.12.6-.23.76-.32" />
        <path class="cls-13"
            d="m154.52,289.46c-.2.78-1.44.99-1.7,1.84-.05.17-.14.77-.26,1.61-.06.4-.12.86-.2,1.36-.05.33-.1.67-.16,1.02-.07.43-.14.88-.22,1.34-.05.28-.11.57-.16.86-.09.44-.18.88-.27,1.3-.45,2.05-1.04,3.89-1.76,4.52,0,.09-.13.17-.19.21-.33.23-.76.37-1.15.47.1-.03-.22-.29-.25-.31-.17-.11-.33-.22-.49-.33-.32-.23-.62-.49-.89-.79-.69-.78-1.18-1.73-1.56-2.7-.64-1.68-.95-3.48-1.13-5.26,0-.03,0-.07-.01-.1-.82-8.52-5.31-12.32-5.02-12.84.29-.52.53-1.17,2.98-1.64,2.45-.47,7.82-.41,7.82-.41-.55,1.1-1.76,3.53-.94,4.71.2.3.53.48.85.65,1.69.92,4.16,1.78,4.69,3.88.07.23.07.42.03.59" />
        <path class="cls-20"
            d="m152.55,292.91h0c-.06.41-.12.86-.2,1.36l-3.03-2.54c-.25-.21-.28-.58-.08-.83.12-.14.29-.21.46-.21.13,0,.27.04.37.14l2.48,2.07" />
        <path class="cls-20"
            d="m152.19,295.29c-.07.43-.14.88-.22,1.34l-3.22-2.69c-.25-.21-.28-.58-.07-.83.12-.14.28-.21.45-.21.13,0,.27.04.37.13l2.69,2.25" />
        <path class="cls-20"
            d="m151.81,297.49c-.09.44-.18.88-.27,1.3l-3.05-2.55c-.25-.21-.28-.58-.07-.83.12-.14.28-.21.45-.21.13,0,.27.05.38.14l2.57,2.15" />
        <path class="cls-22"
            d="m199.24,200.63l-.02-.04s-.04-.06-.06-.1l-.03-.05c.07.11.12.18.12.19h0" />
        <path class="cls-15"
            d="m197.96,198.75c-.86-1.2-2.09-2.82-3.5-4.38h0c1.41,1.56,2.64,3.18,3.5,4.38h0" />
        <path class="cls-12"
            d="m199.24,200.63s-.05-.07-.12-.19l-1.12-1.72-.05.03c-.86-1.2-2.09-2.82-3.5-4.38l8.76-5.98-2.44,11.43-1.53.8" />
        <path class="cls-1"
            d="m199.24,200.63s0-.01-.02-.04l.02.04h0m-.09-.14c-.18-.27-.59-.9-1.19-1.74h0l.05-.03,1.12,1.72.03.05" />
    </g>
    <g id="jogMan">
        <path class="cls-8"
            d="m361.85,138.65c-.44.53-.9.62-1.21.8-.23.12-.38.29-.42.69-.07.96-1.19,2.02-1.31,1.75-.11-.26.3-8.86.37-9.41,0,.26.7,1.85,1.31,3.1.04.09.09.18.14.26.65,1.07,1.88,1.91,1.12,2.82" />
        <path class="cls-8"
            d="m372.73,261.28c.49-2.85-1.25-7.02-7.1-14.79-.72-.96-1.47-1.98-2.24-3.02-5.89,3.51-11.04,7.68-15.66,12.4,4.76,4.11,8.8,7.46,12.13,9.51-1.64,3.37-3.39,7.7-4.6,12.69-.97,4.04-2.13,9.28-3.09,14.5-1.29,7.12-2.19,14.21-1.73,18.17.2,1.83.7,3.01,1.6,3.21,1.01.24,2.19-.79,3.42-2.57,2.41-3.54,5.07-10.08,7.18-15.9,1.31-3.58,2.41-6.9,3.15-9.09,2.11-6.33,8.07-19.13,6.93-25.09" />
        <path class="cls-8"
            d="m309.9,240.2c-3.71,8.38-6.57,15.06-7.14,19.56-3.83.59-8.63,1.67-13.69,3.66-4.35,1.72-10.02,4.09-15.36,6.63-9.02,4.25-17.09,8.95-16.08,11.47,1.09,2.72,11.33.6,20.18-1.75,4.16-1.11,8.01-2.26,10.46-3.01,6.81-2.05,22.03-4.76,25.3-9.59,2.43-1.41,5.42-4.51,9.59-10.27.28-.38.56-.77.85-1.16-4.18-5.77-7.72-12.15-14.12-15.52" />
        <path class="cls-8"
            d="m357.38,128.92c1,.53-.43-.38.44.46,5.46,5.23,2.05,17.97-1.15,19.27-1.18.48-4.13.18-5.23,2.07s-3.37,8.49-6.32,10.99l-8.4-10.32c.42-.91.84-1.84,1.27-2.77.5-1.08,1.67-4.36,1.71-4.98.02-.26.11-.44.13-.66.02-.29-.4-.89-.31-1.11.15-.33.92-.22,1.21-.35.41-.18.83-.59,1.18-.89.74-.66,1.64-1.17,2.32-1.88.75-.73,1.38-1.7,2.01-2.56,2.38-3.23,5.56-6.63,9.67-7.4.63-.13,1.11-.06,1.47.13" />
        <path class="cls-18"
            d="m366.82,246.62s-2.08,4.07-6.88,8.5c-1.77,1.64-3.46,3.05-4.78,4.12-1.6,1.28-2.65,2.02-2.65,2.02,0,0-16.14-10.58-25.39-19.99-.68-.69-1.35-1.39-1.95-2.06-8.7-9.85-6.29-20.63-6.29-20.63l9.18-7.39s17-5.38,18.45,3.72c1.44,9.1,20.31,31.7,20.31,31.7" />
        <path class="cls-1"
            d="m355.16,259.24c-1.6,1.28-2.52,2.12-2.52,2.12,0,0-15.97-10.45-25.24-19.87l13.12-14.21s0,11.96,3.26,17.77c2.36,4.24,11.39,14.19,11.39,14.19" />
        <path class="cls-18"
            d="m323.68,259.28s-15.01-7.33-18.73-12.55c-.3-.42,18.55-37.67,18.99-37.91.44-.24,13.67-2.77,13.85-2.81.44-.09,3.15,4.1,3.44,4.49,2.08,2.72,4.16,5.44,6.23,8.15.9,1.2,1.8,2.43,2.74,3.59-1.38,1.64-1.89,3.41-2.65,5.38-.57,1.53-1.14,3.08-1.69,4.65-.35,1.02-.64,2.24-1.43,2.99-1.58,1.48-3.75,2.41-5.47,3.72-2.21,1.7-3.66,4.05-5.26,6.3-1.66,2.3-3.31,4.62-4.97,6.91-1.67,2.35-3.37,4.71-5.06,7.08" />
        <path class="cls-8"
            d="m352.71,200.97c-.13-.75-6.58-3.63-8.56-2.88-2.01.75-3.28,2.21-4.73,1.53-1.05-.49-12.64-8.82-19.79-13.36,2.32-2.15,4.82-4.72,7.26-7.47-3.69-2.78-6.64-6-9.81-9.46-1.54,2.04-3.1,4.18-4.5,6.25-3.35,4.92-5.84,10.16-5.8,13.42-.01.28.01.56.08.86h0s.02.08.03.12c.09.42.24.79.45,1.11.39.69,1,1.41,1.89,2.17,4.72,4.07,16.96,7.65,23.01,9.75,6.04,2.1,7.99,2.99,10.33,4.84,2.32,1.82,5.69,2.14,6.98-.62,1.29-2.76.42-3.54,1.42-4.25.99-.71,1.91-1.26,1.77-2.01" />
        <path class="cls-17"
            d="m332.97,152.1s-9.51,4.72-20.85,22.15c0,0,2.03,2.99,5.93,6.2,3.77,3.12,5.96,3.7,5.96,3.7l6.66-7.02,2.3-25.03" />
        <path class="cls-23"
            d="m318.87,218.58c-.85.2,8.74-27.33,7.32-34.81-1.44-7.48-4.71-20.92,1.1-27.18,5.82-6.26,11.22-6.78,15.9-5.33,4.69,1.48,10.82,8.32,11.58,20.38.74,12.06-4.57,50.62-4.57,50.62,0,0-26.04-5-31.33-3.69" />
        <path class="cls-8"
            d="m390.49,168.01c-2.36-2.3-3.48-1.7-3.85-2.94-.39-1.26-.61-2.39-1.44-2.52-.81-.13-6.06,5.33-6,7.6.04,2.28,1.07,4.09-.13,5.31-.85.87-13.09,9.25-20.37,14.83-1.04-2.99-2.35-6.26-3.81-9.51-3.98,2.81-8.64,3.32-13.22,4.21,1.47,2.79,3.1,5.76,4.74,8.47,3.07,5.09,6.78,9.54,9.79,10.89.37.2.79.33,1.26.39.03,0,.06,0,.09.01.07,0,.15.01.23.02.07,0,.14,0,.21,0,1.04,0,2.29-.36,3.79-1.2,5.84-3.29,13.89-14.33,18.19-19.67,4.31-5.33,5.93-6.97,8.64-8.66,2.73-1.7,4.24-4.97,1.88-7.25" />
        <path class="cls-16"
            d="m358.34,182.37s-3.95,2.31-8.87,4.7c-4.93,2.41-9.26,2.74-9.26,2.74-.03-.02-.32-.7-.78-1.82-1.96-4.71-6.92-17.17-7.73-21.13-.87-4.27,3.46-10.2,6.05-11.25,6.49-2.67,10.63,2.24,12.46,4.5.67.85,1.97,4.12,3.32,7.91,2.31,6.43,4.81,14.35,4.81,14.35" />
        <path class="cls-20"
            d="m277.82,279.76c-8.86,2.36-19.1,4.47-20.18,1.75-1.01-2.52,7.05-7.21,16.08-11.47l4.11,9.71" />
        <path class="cls-20"
            d="m362.65,295.47c-2.12,5.82-4.77,12.36-7.18,15.9l-5.03-.64c-.46-3.96.44-11.05,1.73-18.17l10.48,2.9" />
        <path class="cls-23"
            d="m351.2,214.58c-.42,3.34,0,10.67,0,10.67,0,0-1.29,3.18-6.22,1.3-23.59-9.05-27.71-1.15-30.05-2.37-.88-.44,2.21-2.5,3.62-7.46,1.42-4.94,7.38-18.64,7.38-18.64l25.26,16.51" />
        <path class="cls-20"
            d="m359.55,121.55c-.04-.12-.09-.24-.18-.32-.43-.41-2.28.09-2.83.15-1,.11-2,.24-3,.33-.14.01-.28.02-.42.03,2.64-.81,3.42-1.85,3.46-1.9.11-.16.08-.38-.08-.49-.16-.11-.38-.08-.49.08-.01.02-1.26,1.66-6.34,2.32-1.22.16-2.2.32-2.98.48-2.44.23-5.19.77-6.53,2.98-.21.34-.35.87-.56,1.19-.48-.36-1.18-.46-3.14-.37-.19,0-.34.17-.33.37,0,.19.18.34.36.33,1.45-.07,2.1-.04,2.48.12-.17.06-.36.11-.57.2-1.29.57-2.04,1.81-2.51,3.09-.92,2.47-.44,5.17.65,7.51.52,1.11,1.14,2.19,1.71,3.29.26.49.5.97.65,1.51.15.55.22,1.1.43,1.63.03.07.07.16.14.2.05.04.15.06.22.06,1.88.13,8.55-.05,6.54-1.97-2.77-2.65-.7-4.33.88-4.59,1.56-.27,2.17,3.98,3.94,3.38,1.75-.62-.55-5.37,1.45-6.23,2.1-.89.22-3.05,1.79-4.47.7-.62,2.43-.42,3.24-.88.09-.06.18-.13.3-.2,2.34-1.54,2.6-5.43,1.73-7.82" />
        <path class="cls-20"
            d="m358.9,135.6c0,.46-.37.83-.83.83s-.83-.37-.83-.83.37-.83.83-.83.83.37.83.83" />
        <path class="cls-20"
            d="m360.32,133.27h-.02s-.05.03-.08.03c-1.2-.05-2.45-.27-3.6.16-.36.13-.69.32-1.01.52-.3.18-.64.47-.97.56,0-.11.12-.3.18-.4.1-.14.21-.26.33-.38.32-.33.64-.71,1.01-.97.91-.65,2.19-.82,3.27-.62.3.05.61.15.79.39.14.18.19.44.12.66,0,.02-.02.04-.03.06" />
        <path class="cls-2"
            d="m312.83,175.19c-.09.13-.18.27-.27.4-.06.09-.11.17-.17.25-.32-.48-.27-1.6-.27-1.6h0s0,.01,0,.01c.04.06.28.4.7.93" />
        <path class="cls-2"
            d="m324.01,184.15c-.67.11-1.73-.1-2.04-.16.17-.17.33-.33.5-.5.96.5,1.5.65,1.53.67h0" />
        <path class="cls-2" d="m358.34,182.37s.46.99-1.51,2.94l-.7-1.7,2.21-1.24" />
        <path class="cls-7"
            d="m340.21,189.81s-.32-.7-.78-1.82c-.06-.15-.13-.3-.19-.46h0c.07.16.13.32.19.46.47,1.12.76,1.8.78,1.82h0m.32-.03h0m0,0c.55-.06,1.77-.24,3.38-.65h0c-1.61.42-2.83.59-3.38.65" />
        <path class="cls-6"
            d="m343.91,189.12h0c1.57-.41,3.52-1.05,5.56-2.05.29-.14.58-.28.87-.43-.29.14-.58.29-.87.43-2.05,1-3.99,1.64-5.56,2.05m10.6-4.63c.6-.32,1.14-.62,1.62-.88h0c-.48.26-1.02.56-1.62.88" />
        <path class="cls-14"
            d="m340.21,189.81s-.32-.7-.78-1.82c-.06-.15-.13-.3-.19-.46,3.98-2.11,14.89-8.55,14.33-18.6,0-.11.04-.3.1-.51,2.26,6.33,4.64,13.88,4.67,13.96l-2.21,1.24h0c-.48.26-1.02.56-1.62.88-1.21.64-2.63,1.39-4.17,2.15-.29.14-.58.28-.87.43-2.05,1-3.99,1.64-5.56,2.05-1.61.42-2.83.59-3.38.65h0c-.2.02-.31.03-.32.03" />
        <path class="cls-10" d="m356.13,183.61h0l2.21-1.24h0s-.83.49-2.21,1.24" />
        <path class="cls-20"
            d="m265.96,300.24c-.06.25-.14.48-.24.68-.97,1.88-4.67-.3-5.7-1.23-1.53-1.38-2.14-4.74-2.55-6.73-.68-3.26-1.35-6.52-2.05-9.77-.47-2.2-1.65-4.02-2.25-6.12-.21-.73.51-1.83,1.08-2.25.24-.18.87-.25,1.52-.27-.02.03-.03.06-.05.09-.33.59,4.31,5.11,4.86,14.95.55,9.83,4.19,10.55,4.24,10.96,0,.05,0,.1-.02.13.09-.04.2-.07.34-.12.4-.13.65-.24.82-.34" />
        <path class="cls-18"
            d="m271.83,284.15c-.24.89-1.57,1.08-1.88,2.06-.06.19-.18.88-.34,1.85-.07.46-.16.99-.26,1.56-.06.37-.14.76-.21,1.17-.09.5-.18,1.01-.29,1.54-.07.32-.13.66-.2.98-.11.5-.22,1-.34,1.49-.56,2.35-1.25,4.44-2.05,5.14,0,.02-.03.29-1.13.64-.14.05-.25.09-.34.12.02-.03.02-.08.02-.13-.05-.4-3.69-1.13-4.24-10.96-.55-9.84-5.19-14.36-4.86-14.95.33-.59.6-1.32,3.23-1.78,2.63-.45,8.34-.2,8.34-.2-.62,1.24-2,4-1.18,5.39.21.35.55.57.88.78,1.76,1.12,4.36,2.19,4.84,4.63.06.26.06.48.01.67" />
        <path class="cls-20"
            d="m269.61,288.06h0c-.07.47-.16.99-.26,1.56l-3.13-3.02c-.26-.25-.28-.67-.05-.95.13-.15.31-.23.49-.23.14,0,.28.06.39.17l2.56,2.47" />
        <path class="cls-20"
            d="m269.14,290.79c-.09.5-.18,1.01-.29,1.54l-3.33-3.21c-.26-.25-.28-.68-.05-.95.13-.16.31-.23.49-.23.14,0,.28.06.39.17l2.78,2.68" />
        <path class="cls-20"
            d="m268.66,293.31c-.11.5-.22,1-.34,1.49l-3.15-3.04c-.26-.25-.27-.68-.05-.95.13-.16.31-.23.49-.23.14,0,.28.06.4.17l2.66,2.56" />
        <path class="cls-20"
            d="m372.42,318.5c-.02.81-.47,1.46-1.49,2.37-1.8,1.59-5.67.64-7.73.21-2.71-.57-5.36-1.43-8.12-1.77-2.31-.29-8.57.92-9.67-2.01-.56-1.5.1-3,.63-3.88.1.85.33,1.04.79,1.27.68.34,5,.06,7.7.78,2.69.73,8.95,2.85,11.38,3.89,1.59.68,4.33,1,5.84-.08.33-.24.55-.5.67-.78" />
        <path class="cls-18"
            d="m365.92,319.36c-2.43-1.04-8.69-3.16-11.38-3.89-2.7-.73-7.01-.44-7.7-.78-.52-.26-.76-.48-.82-1.67,0-.15-.02-.32-.02-.5,0-.26,0-.56,0-.9.03-2.47,3.37-7.29,3.37-7.29,0,0,2.44,2.56,3.39,2.59.95.03,2.34.09,4.37-1.74,2.03-1.83,4.32-.35,5.01-.14.69.22.98,2.76,1.15,3.14.35.76.98,1.52,1.74,2.25.43.42.91.82,1.4,1.21.22.18.45.36.68.54.53.4,1.06.8,1.57,1.16.19.14.39.28.57.42.56.41,1.07.8,1.47,1.15l.04.03c1.18,1.02,2.82,3.04,1.01,4.34-1.5,1.08-4.24.76-5.83.08" />
        <path class="cls-20"
            d="m366.41,311.64l-4.32,1.11c-.4.1-.82-.14-.93-.54-.02-.07-.02-.14-.02-.21.01-.33.24-.63.57-.71l3.31-.85c.43.41.91.82,1.4,1.21" />
        <path class="cls-20"
            d="m368.66,313.35l-4.19,1.08c-.4.1-.82-.14-.92-.55-.02-.07-.03-.14-.02-.22,0-.33.23-.63.57-.71l3.01-.77c.53.4,1.06.8,1.57,1.16" />
        <path class="cls-20"
            d="m370.74,314.94l-4.05,1.05c-.41.1-.82-.14-.93-.55-.02-.07-.02-.14-.02-.21.01-.33.23-.63.57-.71l2.92-.75c.56.41,1.07.8,1.47,1.15l.04.03" />
        <path class="cls-2" d="m340.21,189.81s2.88-.47,3.71-.69l.62,1.14s-1.81.46-4.33-.45" />
    </g>
</svg>