<?xml version="1.0" encoding="UTF-8"?>
<svg id="Layer_2" xmlns="http://www.w3.org/2000/svg" xmlns:xlink="http://www.w3.org/1999/xlink"
    viewBox="0 0 1440 415.49">
    <defs>
        <style>.cls-1,.cls-2{fill:#040038;}.cls-3{fill:#252165;}.cls-4{fill:url(#linear-gradient);}.cls-4,.cls-5,.cls-2{opacity:.98;}.cls-6{fill:none;}.cls-2{font-family:Bauhaus93,
            'Bauhaus 93';font-size:47.76px;}</style>
        <linearGradient id="linear-gradient" x1="480.7" y1="300.97" x2="691.78" y2="214.48"
            gradientTransform="translate(461.85 -362.97) rotate(43.74)"
            gradientUnits="userSpaceOnUse">
            <stop offset="0" stop-color="#10e2bf" />
            <stop offset="1" stop-color="#2483c5" stop-opacity="0" />
        </linearGradient>
    </defs>
    <g id="Layer_1-2">
        <rect id="bg" class="cls-6" width="1440" height="415.49" />
        <g id="logo">
            <path id="blob" class="cls-4"
                d="m763.39,109.03c30.11,13.41,61.75,32.39,71.44,64.07,9.34,30.51-13.59,59.8-24.3,90.01-9.8,27.65-12.44,59.3-35.17,77.77-23.87,19.4-56.58,26.91-86.57,21.17-28.46-5.45-45.97-31.11-67.37-50.65-23.66-21.6-32.36-38.01-34.25-70.2-1.89-32.19,5.73-49.44,25.75-74.79,18.78-23.76,29.86-55.53,58.04-66.27,29.94-11.42,63.3-4.07,92.42,8.9" />
            <g id="man" class="cls-5">
                <g>
                    <circle class="cls-1" cx="827.49" cy="171.23" r="25.62" />
                    <path class="cls-3"
                        d="m801.85,172.14c.04,5.52,1.35,10.79,4.51,15.38s7.43,7.82,12.47,9.63c10.51,3.78,22.56.12,29.23-8.83,3.2-4.29,4.93-9.49,5.06-14.83.14-5.61-.3-10.97-2.97-16.01-5.21-9.84-16.5-15.26-27.45-13.2-5.95,1.12-11.38,4.41-15.17,9.11s-5.63,10.75-5.67,16.95c0,.81-.03,1.64,0,2.45.03.62.02-.53.02-.64.07-10.31,7.38-19.8,16.94-23.23,9.85-3.54,21.14-.58,28,7.31,3.34,3.84,5.49,8.65,6.1,13.7.05.43.09.87.12,1.31.02.31.04,1.52.04.01s-.02-.29-.04.01c-.03.44-.07.87-.12,1.31-.16,1.34-.43,2.67-.8,3.97-.7,2.43-1.76,4.75-3.14,6.87-5.68,8.74-16.39,13.24-26.62,11.16-11.23-2.29-20.41-12.56-20.48-24.22,0-.07.01-1.32-.02-.64-.04.81-.01,1.64,0,2.45Z" />
                </g>
                <g>
                    <path class="cls-1"
                        d="m804.82,197.84c-14.12-14.56-3.94-14.78-116.78-8.87-112.83,5.91,58.39,33.01,58.39,33.01l-54.45,87.7s-39.91-26.11-51.24-21.68c-11.33,4.43,35.97,64.55,56.17,59.13s30.06-37.94,30.06-37.94c0,0,54.42,20.2,52.23,18.72s38.43,91.81,53.21,58.8c14.78-33.01-23.49-73.25-33.51-80.97-10.02-7.72-32.03-17.25-32.03-17.25,0,0,30.26-39.34,41.22-66.35,4.93-12.15-1.02-21.98-3.28-24.31Z" />
                    <path class="cls-3"
                        d="m804.82,196.05c-2.7-2.79-5.11-6.07-8.3-8.33-3.7-2.63-8.36-3.36-12.78-3.75-10.26-.92-20.7-.36-30.97.03-20.76.78-41.51,1.97-62.26,3.06-7.89.41-15.8.87-23.65,1.85-4.31.53-8.73,1.12-12.87,2.5-1.44.48-3.97,1.27-4.39,3-.28,1.19-.15,2.72-.04,3.92.03.31.09.59.23.87.35.7,1,1.25,1.61,1.71,2.18,1.63,4.83,2.67,7.35,3.63,3.77,1.43,7.64,2.61,11.52,3.7,9.85,2.77,19.85,4.99,29.86,7.07s19.3,3.83,28.99,5.55c5.51.98,11.02,1.93,16.54,2.81.26.04.51.08.77.12v-3.58c-2.71,4.36-5.41,8.72-8.12,13.07-5.97,9.62-11.95,19.25-17.92,28.87-6.18,9.95-12.35,19.9-18.53,29.85l-6.57,10.58-2.08,3.35c-.3.49-.65,1.4-1.1,1.77-.31.25-.23.16-.69-.14-1.2-.77-2.41-1.53-3.63-2.29-4.78-2.96-9.65-5.8-14.59-8.48-5.83-3.16-11.81-6.15-18.04-8.46-2.55-.94-5.15-1.78-7.83-2.26-1.98-.36-4.15-.59-6.11,0-1.03.31-1.77.92-2.07,1.98-.21.76-.17,1.59-.17,2.37,0,1.2-.06,2.42.1,3.61.53,3.9,2.67,7.65,4.63,10.98,6.18,10.52,14.35,20.09,23.2,28.45,4.32,4.08,8.93,7.94,13.99,11.06,3.77,2.33,8.1,4.54,12.61,4.75,5.74.28,11.4-3.64,15.4-7.38,5.04-4.7,8.9-10.6,12.06-16.68,2.15-4.14,4.02-8.45,5.53-12.87.13-.37.25-1.23.56-1.29.19-.04.73.27.91.34.55.21,1.11.41,1.66.62,9.85,3.65,19.71,7.28,29.58,10.86,4.82,1.75,9.64,3.5,14.48,5.18,1.42.49,2.85.99,4.28,1.44.26.08.76.34,1.03.29.59-.09.24-1.23.24-1.78,0-.01.08-1.98-.13-1.87-.05.03,0,.09-.04.13-.08.1,0,.57-.01.67,0,.78-.01,1.57,0,2.35.01.68.16,1.23.38,1.87.91,2.64,2.06,5.2,3.19,7.75,4.02,9.04,8.5,17.89,13.44,26.46s10.45,17.64,17.73,24.61c4.23,4.05,10.94,8.48,15.87,2.93,1.4-1.57,2.35-3.49,3.14-5.42,1.49-3.62,2.41-7.47,2.75-11.37.68-7.77-.1-15.62-2.41-23.06-4.49-14.46-13.45-27.51-23.52-38.67-3.23-3.58-6.62-7.12-10.4-10.12-5.99-4.75-13.04-8.28-19.86-11.67-4.13-2.05-8.31-4.03-12.54-5.87v3.58c6.02-7.83,11.71-15.93,17.22-24.12,4.89-7.28,9.61-14.68,13.98-22.28,2.16-3.77,4.24-7.58,6.17-11.47s3.94-7.81,4.99-11.96c.66-2.6.77-5.2.77-7.87,0-2.51-.11-4.98-.7-7.43-.78-3.21-2.19-6.67-4.5-9.11.17.18-.02,1.52-.02,1.79,0,.32-.21,1.55.02,1.79,1.89,1.98,3.14,4.69,3.98,7.26.67,2.06.99,4.14,1.17,6.29.11,1.26-.06-1.16,0-1.16,0,0-.07,1.05-.08,1.13-.06.68-.16,1.37-.28,2.04-.24,1.31-.58,2.59-1.01,3.84-1.29,3.72-3.09,7.32-4.86,10.83-1.86,3.69-3.85,7.32-5.92,10.9-7.6,13.17-16.17,25.79-25.11,38.09-1.92,2.64-3.85,5.27-5.84,7.86-.17.22-.11,3.54,0,3.58,7.52,3.26,14.93,6.87,22.07,10.88,3.97,2.23,7.94,4.59,11.42,7.55,2.59,2.2,5,4.6,7.33,7.06,6.97,7.39,13.2,15.56,18.22,24.4,2.76,4.85,5.14,9.93,6.9,15.23.87,2.64,1.59,5.33,2.1,8.06.26,1.38.46,2.76.6,4.15.07.7.13,1.39.17,2.09.02.36.03.72.05,1.08.06.95.06-1.51,0-.22-.29,5.3-1.39,10.59-3.8,15.36-1.03,2.04-2.42,4.08-4.46,5.22-3.87,2.16-8.2-.26-11.28-2.72-5.05-4.04-9.03-9.44-12.65-14.75-4.33-6.34-8.17-13.01-11.78-19.79-3.14-5.91-6.11-11.93-8.84-18.05-1.4-3.12-2.66-6.26-3.79-9.48-.38-1.09.09,4.19.01,3.31,0,0,.11.04.12.08v-3.58c-.13.4-28.28-9.94-30.27-10.67-5.97-2.19-11.93-4.38-17.89-6.59-.87-.32-1.73-.64-2.6-.96-.34-.13-.98-.52-1.34-.5-.34.02-.03-.13-.27.19-.32.44-.43,1.28-.61,1.79-2.26,6.4-5.2,12.63-8.85,18.35-4.57,7.16-10.71,14.21-18.96,17.06-5.41,1.87-10.77-.11-15.56-2.78-6.46-3.59-12.19-8.51-17.46-13.65-5.77-5.63-11.1-11.74-15.87-18.24-3.66-4.98-7.31-10.32-9.49-16.14-.36-.96-.67-1.94-.87-2.95-.09-.45-.13-.9-.18-1.35.28,2.39-.34,3.65.13,1.9.42-1.57,1.81-2.08,3.3-2.27,2.84-.37,5.81.34,8.52,1.13,3.71,1.07,7.3,2.55,10.81,4.14,7.39,3.35,14.51,7.29,21.48,11.44,2.28,1.36,4.54,2.74,6.78,4.16.32.2,1.65,1.31,1.97,1.19.4-.16,1-1.61,1.22-1.96l2.76-4.44,8.99-14.48c8.01-12.91,16.02-25.81,24.04-38.72,5.52-8.89,11.04-17.78,16.56-26.67.28-.46.57-.92.85-1.38.16-.26,0-3.58,0-3.58-3.83-.61-7.65-1.26-11.46-1.91-8.93-1.54-17.85-3.18-26.74-4.93-10.22-2.02-20.43-4.18-30.53-6.73-7.67-1.94-15.62-3.89-22.8-7.29-1.7-.81-3.93-1.8-4.97-3.48-.17-.27-.21-.55-.34-.83-.22-.47,0,3.12-.02,3.17.03-.05,0-.13.03-.19.06-.12.08-.27.14-.4.33-.69,1.04-1.17,1.68-1.53,2.78-1.58,6.23-2.15,9.34-2.69,6.11-1.08,12.32-1.62,18.51-2.07,11.23-.81,22.48-1.26,33.72-1.85,9.97-.52,19.93-1.03,29.9-1.47,12.01-.54,24.1-1.21,36.12-.73,5.14.2,10.79.45,15.48,2.82,3.25,1.64,5.6,4.44,8.02,7.09.76.83,1.53,1.66,2.31,2.47-.17-.17.02-1.52.02-1.79,0-.31.21-1.56-.02-1.79Z" />
                </g>
            </g>
            <g id="tracker">
                <text class="cls-2" transform="translate(636.02 181.62) rotate(-3.54)">
                    <tspan x="0" y="0">T</tspan>
                </text>
                <text class="cls-2" transform="translate(660.54 180.11) rotate(-3.54)">
                    <tspan x="0" y="0">r</tspan>
                </text>
                <text class="cls-2" transform="translate(675.87 179.16) rotate(-3.54)">
                    <tspan x="0" y="0">a</tspan>
                </text>
                <text class="cls-2" transform="translate(703.89 177.43) rotate(-3.54)">
                    <tspan x="0" y="0">c</tspan>
                </text>
                <text class="cls-2" transform="translate(730.56 175.78) rotate(-3.54)">
                    <tspan x="0" y="0">k</tspan>
                </text>
                <text class="cls-2" transform="translate(756.26 174.19) rotate(-3.54)">
                    <tspan x="0" y="0">e</tspan>
                </text>
                <text class="cls-2" transform="translate(782.67 172.56) rotate(-3.54)">
                    <tspan x="0" y="0">r</tspan>
                </text>
            </g>
        </g>
    </g>
</svg>